<svg id="Capa_1" viewBox="0 0 480.007 480.007" style="enable-background:new 0 0 480.007 480.007;" xmlns="http://www.w3.org/2000/svg"><g><path d="m362 60.931c-33.084 0-60 26.916-60 60 0 7.249-.099 14.206-.271 20.933l-30.729-15.238v-95.695h-30v95.695l-30.729 15.237c-.172-6.727-.271-13.684-.271-20.933 0-33.084-26.916-60-60-60-89.626 0-150 105.812-150 195v180c0 27.02 17.277 45.139 48.738 45.139 66.328 0 191.262-81.292 191.262-150.139 0-12.418-3.577-25.589-8.105-42.264-6.738-24.811-16.132-59.443-20.056-114.095l44.161-21.898 44.161 21.898c-3.923 54.652-13.318 89.284-20.056 114.095-4.528 16.675-8.105 29.846-8.105 42.264 0 68.679 124.739 150.139 191.262 150.139 31.442 0 48.738-18.1 48.738-45.139v-180c0-89.671-60.662-194.999-150-194.999zm-159.057 235.598c4.097 15.085 7.057 25.984 7.057 34.402 0 47.997-107.5 120.139-161.262 120.139-15.12 0-18.738-5.017-18.738-15.139v-180c0-72.09 48.466-165 120-165 16.542 0 30 13.458 30 30 0 12.61.265 24.445.745 35.573l-49.26 24.427h-41.485v30h25.788l-25.34 101.362 29.104 7.276 28.32-113.278 35.009-17.36c4.536 50.423 13.503 83.444 20.062 107.598zm279.057 139.402c0 10.105-3.587 15.139-18.738 15.139-53.308-.001-161.262-71.809-161.262-120.139 0-8.417 2.96-19.316 7.057-34.402 6.56-24.154 15.526-57.174 20.063-107.598l35.009 17.36 28.32 113.278 29.104-7.276-25.34-101.362h25.787v-30h-41.485l-49.26-24.427c.48-11.128.745-22.964.745-35.573 0-16.542 13.458-30 30-30 71.521 0 120 92.892 120 165z"/></g></svg>