<svg id="Layer_1" enable-background="new 0 0 512 512" viewBox="0 0 512 512" xmlns="http://www.w3.org/2000/svg"><path d="m194 329.89v87.928c0 19.809-9.091 37.965-24.943 49.813-10.916 8.158-23.792 12.389-36.945 12.39-5.904 0-11.861-.852-17.725-2.583l-49.439-14.595c-23.095-6.819-40.936-25.619-46.561-49.063-7.515-31.323-18.387-107.761-18.387-164.041 0-109.853 56.364-167.308 89.962-191.779 11.64-8.479 25.132-12.96 39.018-12.96h.028c34.637.015 59.451 21.457 64.759 55.959 1.679 10.918-5.81 21.129-16.727 22.809-10.922 1.678-21.129-5.81-22.809-16.727-2.311-15.031-10.332-22.035-25.239-22.041-.003 0-.007 0-.011 0-5.443 0-10.647 1.78-15.468 5.292-33.537 24.426-73.513 71.916-73.513 159.447 0 53.232 10.219 125.266 17.283 154.707 2.297 9.576 9.574 17.252 18.991 20.032l49.439 14.595c6.715 1.98 13.784.713 19.396-3.482 5.65-4.223 8.891-10.701 8.891-17.773v-87.928c0-11.046 8.954-20 20-20s20 8.954 20 20zm140.959-206.122c10.919 1.673 21.129-5.81 22.809-16.727 2.312-15.031 10.333-22.035 25.24-22.041h.011c5.443 0 10.647 1.78 15.469 5.292 33.536 24.426 73.512 71.916 73.512 159.447 0 11.046 8.954 20 20 20s20-8.954 20-20c0-109.854-56.364-167.309-89.961-191.779-11.641-8.48-25.132-12.96-39.02-12.96-.008 0-.019 0-.027 0-34.637.015-59.451 21.457-64.759 55.959-1.679 10.918 5.809 21.129 16.726 22.809zm177.041 261.232c0 11.046-8.954 20-20 20h-14.125c-2.45 11.389-6.945 22.026-13.085 31.505l10.352 10.352c7.811 7.811 7.811 20.474 0 28.284-3.905 3.906-9.023 5.859-14.142 5.859s-10.237-1.952-14.142-5.857l-10.353-10.353c-9.479 6.14-20.116 10.635-31.505 13.085v14.125c0 11.046-8.954 20-20 20s-20-8.954-20-20v-14.125c-11.389-2.45-22.026-6.945-31.505-13.085l-10.353 10.353c-3.905 3.904-9.024 5.857-14.142 5.857-5.119 0-10.237-1.952-14.142-5.858-7.811-7.811-7.811-20.474 0-28.284l10.352-10.352c-6.14-9.479-10.635-20.116-13.085-31.505h-14.125c-11.046 0-20-8.954-20-20s8.954-20 20-20h14.125c2.45-11.389 6.945-22.026 13.085-31.506l-10.353-10.353c-7.811-7.811-7.811-20.474 0-28.284s20.475-7.811 28.284.001l10.352 10.352c9.479-6.14 20.117-10.635 31.506-13.085v-14.126c0-11.046 8.954-20 20-20s20 8.954 20 20v14.125c11.389 2.45 22.027 6.945 31.506 13.085l10.352-10.352c7.81-7.811 20.474-7.812 28.284-.001s7.811 20.474 0 28.284l-10.353 10.353c6.14 9.479 10.635 20.116 13.085 31.506h14.127c11.046 0 20 8.954 20 20zm-72 0c0-30.327-24.673-55-55-55s-55 24.673-55 55 24.673 55 55 55 55-24.673 55-55zm-30 0c0 13.807-11.193 25-25 25s-25-11.193-25-25 11.193-25 25-25 25 11.193 25 25zm2.074-192.763c-22.428-3.488-58.09-13.803-87.203-28.98-18.252-9.517-48.871-28.968-48.871-52.33v-90.927c0-11.046-8.954-20-20-20s-20 8.954-20 20v90.927c0 23.362-30.619 42.813-48.871 52.33-29.113 15.178-64.775 25.492-87.203 28.98-10.915 1.698-18.386 11.923-16.688 22.837 1.536 9.873 10.048 16.929 19.738 16.929 9.024 0 21.018-3.561 32.614-6.651-5.309 15.979-14.277 33.098-28.559 41.311-9.576 5.506-12.875 17.731-7.369 27.308 3.699 6.434 10.432 10.033 17.356 10.033 3.381 0 6.81-.858 9.951-2.665 37.325-21.462 49.602-68.801 53.396-90.978 28.39-11.604 57.169-27.905 75.635-49.427 37.311 43.489 135 71.07 153.024 71.07 9.689 0 18.202-7.057 19.738-16.929 1.698-10.915-5.773-21.139-16.688-22.838z"/></svg>